# xmcd CD database file
#
# Track frame offsets:
#	150
#	15016
#	33085
#	45568
#	62595
#	87074
#	104419
#	129503
#	147440
#	167327
#	191289
#	212504
#
# Disc length: 2978 seconds
#
# Revision: 0
# Processed by: cddbd v1.5.2PL0 Copyright (c) Steve Scherf et al.
# Submitted via: CDex 1.51
#
DISCID=890ba00c
DTITLE=Lluis Coloma - Boogieology
DYEAR=2005
DGENRE=Jazz
TTITLE0=Hurricane's Boogie
TTITLE1=A Night With Axel 
TTITLE2=Swingin' The Boogie
TTITLE3=Jungle's Groove
TTITLE4=Drummin' 
TTITLE5=35 Boogie
TTITLE6=Anna 
TTITLE7=Longhair's Tribute 
TTITLE8=Crazy Boogie
TTITLE9=November's Song
TTITLE10=Jam 
TTITLE11=Crawfish Fiesta
EXTD=YEAR: 2005
EXTT0=
EXTT1=
EXTT2=
EXTT3=
EXTT4=
EXTT5=
EXTT6=
EXTT7=
EXTT8=
EXTT9=
EXTT10=
EXTT11=
PLAYORDER=
